<svg xmlns="http://www.w3.org/2000/svg" xmlns:xlink="http://www.w3.org/1999/xlink" viewBox="-9223 -520 300 300">
  <defs>
    <style>
      .cls-1, .cls-2, .cls-4, .cls-5 {
        fill: none;
      }

      .cls-1 {
        clip-path: url(#clip-Scelto_illustration-arkitektur-dark-bg-big-tjenester);
      }

      .cls-2 {
        stroke: #c5d300;
      }

      .cls-2, .cls-3, .cls-4, .cls-5 {
        stroke-width: 4px;
      }

      .cls-3 {
        fill: #300073;
        stroke: #666464;
      }

      .cls-4 {
        stroke: #a0a0a0;
      }

      .cls-5 {
        stroke: #c5d200;
      }
    </style>
    <clipPath id="clip-Scelto_illustration-arkitektur-dark-bg-big-tjenester">
      <rect x="-9223" y="-520" width="300" height="300"/>
    </clipPath>
  </defs>
  <g id="Scelto_illustration-arkitektur-dark-bg-big-tjenester" data-name="Scelto–illustration-arkitektur-dark-bg-big-tjenester" class="cls-1">
    <g id="group-396" transform="translate(-9327 -3819)">
      <rect id="rectangle" class="cls-2" width="31.572" height="31.572" rx="35" ry="35" transform="translate(345.923 3327.418)"/>
      <line id="line" class="cls-3" x2="15.844" transform="translate(175.949 3343.261)"/>
      <line id="line-2" data-name="line" class="cls-3" x2="15.728" transform="translate(199.715 3343.261)"/>
      <line id="line-3" data-name="line" class="cls-3" x2="15.844" transform="translate(223.365 3343.261)"/>
      <line id="line-4" data-name="line" class="cls-3" x2="15.728" transform="translate(247.131 3343.261)"/>
      <line id="line-5" data-name="line" class="cls-3" x2="15.844" transform="translate(270.78 3343.261)"/>
      <line id="line-6" data-name="line" class="cls-3" x2="15.844" transform="translate(294.546 3343.261)"/>
      <line id="line-7" data-name="line" class="cls-3" x2="15.844" transform="translate(318.196 3343.261)"/>
      <line id="line-8" data-name="line" class="cls-3" x2="15.844" transform="translate(175.949 3556.691)"/>
      <line id="line-9" data-name="line" class="cls-3" x2="15.728" transform="translate(199.715 3556.691)"/>
      <line id="line-10" data-name="line" class="cls-3" x2="15.844" transform="translate(223.365 3556.691)"/>
      <line id="line-11" data-name="line" class="cls-3" x2="15.728" transform="translate(247.131 3556.691)"/>
      <line id="line-12" data-name="line" class="cls-3" x2="15.844" transform="translate(270.78 3556.691)"/>
      <line id="line-13" data-name="line" class="cls-3" x2="15.844" transform="translate(294.546 3556.691)"/>
      <line id="line-14" data-name="line" class="cls-3" x2="15.844" transform="translate(318.196 3556.691)"/>
      <line id="line-15" data-name="line" class="cls-3" y2="15.844" transform="translate(361.767 3370.873)"/>
      <line id="line-16" data-name="line" class="cls-3" y2="15.728" transform="translate(361.767 3394.639)"/>
      <line id="line-17" data-name="line" class="cls-3" y2="15.844" transform="translate(361.767 3418.289)"/>
      <line id="line-18" data-name="line" class="cls-3" y2="15.728" transform="translate(361.767 3442.055)"/>
      <line id="line-19" data-name="line" class="cls-3" y2="15.844" transform="translate(361.767 3465.704)"/>
      <line id="line-20" data-name="line" class="cls-3" y2="15.844" transform="translate(361.767 3489.47)"/>
      <line id="line-21" data-name="line" class="cls-3" y2="15.844" transform="translate(361.767 3513.12)"/>
      <line id="line-22" data-name="line" class="cls-3" y2="15.844" transform="translate(148.338 3370.873)"/>
      <line id="line-23" data-name="line" class="cls-3" y2="15.728" transform="translate(148.338 3394.639)"/>
      <line id="line-24" data-name="line" class="cls-3" y2="15.844" transform="translate(148.338 3418.289)"/>
      <line id="line-25" data-name="line" class="cls-3" y2="15.728" transform="translate(148.338 3442.055)"/>
      <line id="line-26" data-name="line" class="cls-3" y2="15.844" transform="translate(148.338 3465.704)"/>
      <line id="line-27" data-name="line" class="cls-3" y2="15.844" transform="translate(148.338 3489.47)"/>
      <line id="line-28" data-name="line" class="cls-3" y2="15.844" transform="translate(148.338 3513.12)"/>
      <rect id="rectangle-2" data-name="rectangle" class="cls-2" width="31.572" height="31.572" rx="35" ry="35" transform="translate(132.494 3327.418)"/>
      <rect id="rectangle-3" data-name="rectangle" class="cls-2" width="31.572" height="31.572" rx="35" ry="35" transform="translate(132.494 3540.846)"/>
      <rect id="rectangle-4" data-name="rectangle" class="cls-2" width="31.572" height="31.572" rx="35" ry="35" transform="translate(345.923 3540.846)"/>
      <line id="line-29" data-name="line" class="cls-4" y1="134.325" x2="134.325" transform="translate(187.832 3382.756)"/>
      <line id="line-30" data-name="line" class="cls-4" x2="134.325" y2="134.325" transform="translate(187.832 3382.756)"/>
      <path id="path" class="cls-4" d="M85.033,169.833H49.5V134.3" transform="translate(138.332 3347.248)"/>
      <path id="path-2" data-name="path" class="cls-4" d="M85.033,49.5H49.5V85.033" transform="translate(138.332 3333.256)"/>
      <path id="path-3" data-name="path" class="cls-4" d="M134.3,169.833h35.533V134.3" transform="translate(152.324 3347.248)"/>
      <path id="path-4" data-name="path" class="cls-4" d="M134.3,49.5h35.533V85.033" transform="translate(152.324 3333.256)"/>
      <ellipse id="ellipse" class="cls-4" cx="59.299" cy="59.299" rx="59.299" ry="59.299" transform="translate(195.754 3390.677)"/>
      <line id="line-31" data-name="line" class="cls-5" x2="7.922" transform="translate(286.624 3449.977)"/>
      <line id="line-32" data-name="line" class="cls-5" x2="7.922" transform="translate(251.091 3485.509)"/>
      <line id="line-33" data-name="line" class="cls-5" x2="7.922" transform="translate(215.442 3449.977)"/>
      <line id="line-34" data-name="line" class="cls-5" x2="7.922" transform="translate(251.091 3414.327)"/>
    </g>
  </g>
</svg>
