<svg xmlns="http://www.w3.org/2000/svg" xmlns:xlink="http://www.w3.org/1999/xlink" viewBox="-9083 -914 42 42">
  <defs>
    <style>
      .cls-1 {
        fill: none;
        clip-path: url(#clip-Scelto_icon-twitter-footer);
      }

      .cls-2 {
        fill: #c5d200;
      }
    </style>
    <clipPath id="clip-Scelto_icon-twitter-footer">
      <rect x="-9083" y="-914" width="42" height="42"/>
    </clipPath>
  </defs>
  <g id="Scelto_icon-twitter-footer" data-name="Scelto–icon-twitter-footer" class="cls-1">
    <g id="group-541" transform="translate(-9466 -7874)">
      <path id="dh_twitter" class="cls-2" d="M25.431,4.8a10.679,10.679,0,0,1-3.4,1.3,5.356,5.356,0,0,0-9.11,4.881A15.188,15.188,0,0,1,1.855,5.391a5.362,5.362,0,0,0,1.659,7.158A5.33,5.33,0,0,1,1.087,11.9v.059a5.362,5.362,0,0,0,4.308,5.206,5.369,5.369,0,0,1-1.412.189,5.57,5.57,0,0,1-1.009-.1,5.362,5.362,0,0,0,5,3.716A10.731,10.731,0,0,1,1.3,23.293,10.952,10.952,0,0,1,0,23.222a15.143,15.143,0,0,0,8.258,2.4A15.129,15.129,0,0,0,23.492,10.389V9.7a10.841,10.841,0,0,0,2.675-2.772,10.692,10.692,0,0,1-3.072.839A5.369,5.369,0,0,0,25.431,4.8" transform="translate(391 6966.781)"/>
    </g>
  </g>
</svg>
