<svg xmlns="http://www.w3.org/2000/svg" xmlns:xlink="http://www.w3.org/1999/xlink" viewBox="-8908 -786 180 180">
  <defs>
    <style>
      .cls-1, .cls-2, .cls-5, .cls-7 {
        fill: none;
      }

      .cls-1 {
        clip-path: url(#clip-Scelto_illustration-vaart-maal);
      }

      .cls-2 {
        stroke: #c5d200;
      }

      .cls-2, .cls-4, .cls-5, .cls-6 {
        stroke-width: 3px;
      }

      .cls-3, .cls-4 {
        fill: #c5d200;
      }

      .cls-4, .cls-6 {
        stroke: #95989a;
      }

      .cls-5, .cls-7 {
        stroke: #a0a0a0;
      }

      .cls-6 {
        fill: #fff;
      }

      .cls-7 {
        stroke-width: 2px;
      }
    </style>
    <clipPath id="clip-Scelto_illustration-vaart-maal">
      <rect x="-8908" y="-786" width="180" height="180"/>
    </clipPath>
  </defs>
  <g id="Scelto_illustration-vaart-maal" data-name="Scelto–illustration-vaart-maal" class="cls-1">
    <g id="group-522" transform="translate(-9948 -1725)">
      <path id="path" class="cls-2" d="M387.382,529h2.638a13.191,13.191,0,1,1,0,26.382H374.191A13.191,13.191,0,0,0,361,568.573v2.638" transform="translate(745.256 468.556)"/>
      <path id="path-2" data-name="path" class="cls-3" d="M408.659,522s-1.741,17.57-7.915,23.744S377,553.659,377,553.659s1.741-17.571,7.915-23.744S408.659,522,408.659,522Z" transform="translate(774.467 456.088)"/>
      <path id="path-3" data-name="path" class="cls-3" d="M376.383,540.382s-12.611-1.424-18.784-7.6S350,514,350,514s12.611,1.425,18.784,7.6S376.383,540.382,376.383,540.382Z" transform="translate(727.235 443.983)"/>
      <path id="path-4" data-name="path" class="cls-4" d="M85.277,42,74.724,97.4H16.683L6.13,42" transform="translate(1084.297 1013.597)"/>
      <path id="path-5" data-name="path" class="cls-5" d="M85.277,42,74.724,97.4H16.683L6.13,42" transform="translate(1084.297 1013.597)"/>
      <path id="path-6" data-name="path" class="cls-6" d="M367,602.338V515.277a5.276,5.276,0,1,1,10.553,0v87.061" transform="translate(755.086 437.43)"/>
      <path id="path-7" data-name="path" class="cls-5" d="M447.615,545a7.915,7.915,0,0,1,0,15.829h-89.7a7.915,7.915,0,0,1,0-15.829Z" transform="translate(727.235 494.768)"/>
      <path id="path-8" data-name="path" class="cls-2" d="M385.191,514A13.191,13.191,0,0,1,372,527.191" transform="translate(760.277 443.983)"/>
      <path id="path-9" data-name="path" class="cls-5" d="M367,602.338V515.277a5.276,5.276,0,1,1,10.553,0v87.061" transform="translate(755.086 437.43)"/>
      <line id="line" class="cls-5" x2="31.659" transform="translate(1093.065 1071.427)"/>
      <line id="line-2" data-name="line" class="cls-7" x2="18.468" transform="translate(1095.703 1081.979)"/>
      <line id="line-3" data-name="line" class="cls-5" x2="5.276" transform="translate(1124.724 1047.682)"/>
      <line id="line-4" data-name="line" class="cls-5" x2="5.276" transform="translate(1135.276 1047.682)"/>
      <line id="line-5" data-name="line" class="cls-5" x2="5.276" transform="translate(1114.171 1047.682)"/>
      <path id="path-10" data-name="path" class="cls-2" d="M387.382,545.382H374.191a13.191,13.191,0,0,1,0-26.382h2.638" transform="translate(745.256 452.174)"/>
    </g>
  </g>
</svg>
