<svg xmlns="http://www.w3.org/2000/svg" xmlns:xlink="http://www.w3.org/1999/xlink" viewBox="-9111 -786 180 180">
  <defs>
    <style>
      .cls-1, .cls-4 {
        fill: none;
      }

      .cls-1 {
        clip-path: url(#clip-Scelto_illustration-vaar-visjon);
      }

      .cls-2 {
        fill: #a0a0a0;
      }

      .cls-3 {
        fill: #c5d200;
      }

      .cls-4 {
        stroke: #fff;
        stroke-width: 3px;
      }
    </style>
    <clipPath id="clip-Scelto_illustration-vaar-visjon">
      <rect x="-9111" y="-786" width="180" height="180"/>
    </clipPath>
  </defs>
  <g id="Scelto_illustration-vaar-visjon" data-name="Scelto–illustration-vaar-visjon" class="cls-1">
    <g id="group-521" transform="translate(-9704 -1739)">
      <path id="path" class="cls-2" d="M977.279,894.231V869.812c0-20.348-16.279-37.441-16.279-61.046S984.2,764,1007.8,764s46.8,21.163,46.8,44.767l12.21,30.523H1054.6V857.6a12.209,12.209,0,0,1-12.209,12.209h-16.279v24.418" transform="translate(-319.215 214.174)"/>
      <path id="path-2" data-name="path" class="cls-3" d="M45.767,74.15,1,23.279,17.279,7H74.255L90.533,23.279Z" transform="translate(618.402 985.418)"/>
      <path id="path-3" data-name="path" class="cls-4" d="M45.767,74.15,1,23.279,17.279,7H74.255L90.533,23.279Z" transform="translate(618.402 985.418)"/>
      <line id="line" class="cls-4" x2="89.533" transform="translate(619.402 1008.697)"/>
      <line id="line-2" data-name="line" class="cls-4" x2="14.244" y2="16.279" transform="translate(635.681 992.418)"/>
      <line id="line-3" data-name="line" class="cls-4" y1="16.279" x2="14.244" transform="translate(649.925 992.418)"/>
      <line id="line-4" data-name="line" class="cls-4" x2="14.244" y2="16.279" transform="translate(664.169 992.418)"/>
      <line id="line-5" data-name="line" class="cls-4" y1="16.279" x2="14.244" transform="translate(678.413 992.418)"/>
      <line id="line-6" data-name="line" class="cls-4" x2="14.244" y2="50.871" transform="translate(649.925 1008.697)"/>
      <line id="line-7" data-name="line" class="cls-4" y1="50.871" x2="14.244" transform="translate(664.169 1008.697)"/>
    </g>
  </g>
</svg>
