<svg xmlns="http://www.w3.org/2000/svg" xmlns:xlink="http://www.w3.org/1999/xlink" viewBox="-9720 -786 180 180">
  <defs>
    <style>
      .cls-1, .cls-2, .cls-3, .cls-4, .cls-5 {
        fill: none;
      }

      .cls-1 {
        clip-path: url(#clip-Scelto_illustration-systemutvikling-dark-bg-frontpage);
      }

      .cls-2, .cls-3 {
        stroke: #fff;
      }

      .cls-2 {
        stroke-width: 4px;
      }

      .cls-3, .cls-4, .cls-5 {
        stroke-width: 3px;
      }

      .cls-4 {
        stroke: #c5d300;
      }

      .cls-5 {
        stroke: #a0a0a0;
      }
    </style>
    <clipPath id="clip-Scelto_illustration-systemutvikling-dark-bg-frontpage">
      <rect x="-9720" y="-786" width="180" height="180"/>
    </clipPath>
  </defs>
  <g id="Scelto_illustration-systemutvikling-dark-bg-frontpage" data-name="Scelto–illustration-systemutvikling-dark-bg-frontpage" class="cls-1">
    <g id="group-480" transform="translate(-10313 -4947.761)">
      <path id="path" class="cls-2" d="M120.661,198.721a17.761,17.761,0,1,1,0-35.521H19.78a17.761,17.761,0,1,0,0,35.521H120.661" transform="translate(595 4133.04)"/>
      <path id="path-2" data-name="path" class="cls-3" d="M155.5,209.2" transform="translate(560.161 4122.561)"/>
      <path id="path-3" data-name="path" class="cls-2" d="M40.4,117.6V19.761A17.773,17.773,0,0,1,58.18,2H165.013a17.773,17.773,0,0,0-17.78,17.761V144.239A17.773,17.773,0,0,1,129.454,162" transform="translate(586.285 4169.761)"/>
      <path id="path-4" data-name="path" class="cls-2" d="M197.7,37.621h2.938a17.761,17.761,0,1,0,0-35.521" transform="translate(550.583 4169.739)"/>
      <line id="line" class="cls-4" x2="5.952" transform="translate(677.086 4195.468)"/>
      <line id="line-2" data-name="line" class="cls-4" x2="5.875" transform="translate(688.991 4195.468)"/>
      <line id="line-3" data-name="line" class="cls-4" x2="5.875" transform="translate(665.259 4195.468)"/>
      <path id="line-4" data-name="line" class="cls-5" d="M31.864,0H65.491" transform="translate(647.232 4219.174)"/>
      <line id="line-5" data-name="line" class="cls-5" x2="65.321" transform="translate(647.402 4231.066)"/>
      <line id="line-6" data-name="line" class="cls-5" x2="65.321" transform="translate(647.402 4242.881)"/>
      <line id="line-7" data-name="line" class="cls-5" x2="65.321" transform="translate(647.402 4254.772)"/>
      <line id="line-8" data-name="line" class="cls-5" x2="65.321" transform="translate(647.402 4266.587)"/>
    </g>
  </g>
</svg>
